<?xml version="1.0" encoding="UTF-8"?>
<svg id="Layer_1" data-name="Layer 1" width="65" height="65" xmlns="http://www.w3.org/2000/svg" viewBox="0 0 122.28 35.02">
  <g>
    <path d="m118.44.26l-6.65,2.07c-4.47,1.39-4.52,3.81-.11,5.38l1.34.48c.39.14.69.45.81.84l.42,1.35c1.39,4.47,3.81,4.52,5.38.11l2.33-6.56c1.05-2.94-.54-4.59-3.52-3.66Zm.44,3.85l-2.83,2.72c-.22.21-.56.2-.77-.02s-.2-.56.02-.77l2.83-2.72c.22-.21.56-.2.77.02s.2.56-.02.77Z" style="fill: #6347f9;"/>
    <path d="m117.92,1.98l-4.61,4.43s3.38,3,3.41,2.84,4.03-5.54,4.03-5.54l-2.83-1.73Z" style="fill: #6347f9;"/>
  </g>
  <g>
    <path d="m15.26,6.08v3.37h-5.54v17.44h-4.17V9.45H0v-3.37h15.26Z" style="fill: #1f3347;"/>
    <path d="m24.58,10.88c.86-.5,1.85-.75,2.97-.75v4.38h-1.1c-1.31,0-2.3.31-2.97.92-.67.62-1,1.69-1,3.22v8.23h-4.17V10.37h4.17v2.56c.54-.87,1.24-1.56,2.1-2.06Z" style="fill: #1f3347;"/>
    <path d="m30.27,14.13c.67-1.29,1.57-2.28,2.71-2.98,1.14-.69,2.42-1.04,3.83-1.04,1.23,0,2.31.25,3.23.75.92.5,1.66,1.12,2.22,1.88v-2.36h4.2v16.51h-4.2v-2.41c-.54.78-1.28,1.42-2.22,1.92-.94.51-2.03.76-3.26.76-1.39,0-2.66-.36-3.8-1.07s-2.05-1.72-2.71-3.02-1-2.8-1-4.49.33-3.15,1-4.44Zm11.4,1.89c-.4-.72-.93-1.28-1.61-1.67-.68-.39-1.4-.58-2.18-.58s-1.49.19-2.15.57c-.66.38-1.19.93-1.59,1.65-.41.73-.61,1.58-.61,2.58s.2,1.86.61,2.61c.41.75.94,1.32,1.61,1.71s1.38.6,2.13.6,1.5-.19,2.18-.58c.67-.39,1.21-.94,1.61-1.67.4-.72.6-1.59.6-2.61s-.2-1.88-.6-2.61Z" style="fill: #1f3347;"/>
    <path d="m57.44,23.04l4.17-12.67h4.44l-6.11,16.51h-5.07l-6.08-16.51h4.47l4.17,12.67Z" style="fill: #1f3347;"/>
    <path d="m68.69,7.7c-.49-.47-.73-1.05-.73-1.74s.24-1.28.73-1.74c.49-.47,1.1-.7,1.83-.7s1.35.23,1.83.7c.49.47.73,1.05.73,1.74s-.24,1.28-.73,1.74c-.49.47-1.1.7-1.83.7s-1.35-.23-1.83-.7Zm3.89,2.67v16.51h-4.17V10.37h4.17Z" style="fill: #1f3347;"/>
    <path d="m86.41,10.83c.93.49,1.67,1.12,2.21,1.89v-2.36h4.2v16.63c0,1.53-.31,2.9-.92,4.1-.62,1.2-1.54,2.16-2.77,2.86-1.23.71-2.72,1.06-4.47,1.06-2.34,0-4.27-.55-5.77-1.64s-2.35-2.58-2.55-4.47h4.14c.22.75.69,1.36,1.42,1.8s1.6.67,2.64.67c1.21,0,2.2-.36,2.95-1.09.76-.72,1.13-1.82,1.13-3.29v-2.56c-.54.78-1.28,1.42-2.22,1.94-.94.52-2.02.78-3.23.78-1.39,0-2.66-.36-3.82-1.07s-2.06-1.72-2.73-3.02-1-2.8-1-4.49.33-3.15,1-4.44c.67-1.29,1.57-2.28,2.71-2.98,1.14-.69,2.42-1.04,3.83-1.04,1.23,0,2.31.24,3.25.73Zm1.61,5.19c-.4-.72-.93-1.28-1.61-1.67-.68-.39-1.4-.58-2.18-.58s-1.49.19-2.15.57c-.66.38-1.19.93-1.59,1.65-.41.73-.61,1.58-.61,2.58s.2,1.86.61,2.61c.41.75.94,1.32,1.61,1.71s1.38.6,2.13.6,1.5-.19,2.18-.58c.67-.39,1.21-.94,1.61-1.67.4-.72.6-1.59.6-2.61s-.2-1.88-.6-2.61Z" style="fill: #1f3347;"/>
    <path d="m99.94,26.09c-1.27-.71-2.27-1.7-3-3-.73-1.29-1.09-2.78-1.09-4.47s.37-3.18,1.12-4.47c.74-1.29,1.76-2.29,3.05-3,1.29-.71,2.73-1.06,4.32-1.06s3.03.35,4.32,1.06c1.29.71,2.31,1.7,3.06,3,.75,1.29,1.12,2.78,1.12,4.47s-.38,3.18-1.15,4.47c-.77,1.29-1.8,2.29-3.1,3s-2.76,1.06-4.37,1.06-3.02-.35-4.29-1.06Zm6.42-3.13c.67-.37,1.2-.92,1.59-1.65.4-.74.6-1.63.6-2.68,0-1.57-.41-2.78-1.24-3.62-.83-.84-1.83-1.27-3.03-1.27s-2.19.42-3,1.27c-.8.85-1.21,2.05-1.21,3.62s.39,2.78,1.18,3.62c.78.85,1.77,1.27,2.97,1.27.76,0,1.47-.18,2.13-.55Z" style="fill: #1f3347;"/>
  </g>
</svg>